<svg xmlns="http://www.w3.org/2000/svg" width="1180" height="762" viewBox="0 0 1180 762" role="img" aria-labelledby="title desc">
<title id='title'>Held-out tract profile after full-corpus LoRA</title>
<desc id='desc'>Single-series tract profile for the completed full-corpus Christian virtue LoRA run, showing held-out exact citation by tract.</desc>
<rect width="100%" height="100%" fill="#f8fafc"/>
<rect x="24" y="18" width="1132" height="726" rx="18" fill="#ffffff" stroke="#d4d4d8" stroke-width="1.5"/>
<text x="72" y="52" font-size="28" font-family="Georgia, serif" fill="#0f172a">Held-Out Tract Profile After Full-Corpus LoRA</text>
<text x="72" y="78" font-size="13" font-family="Helvetica, Arial, sans-serif" fill="#475569">All eight tracked virtue tracts now cluster between 68.6% and 73.9% exact citation on the untouched test split.</text>
<rect x="836" y="28" width="264" height="92" rx="16" fill="#eff6ff" stroke="#bfdbfe" stroke-width="1.5"/>
<text x="860" y="54" font-size="11" font-family="Helvetica, Arial, sans-serif" font-weight="700" fill="#1d4ed8">Coverage snapshot</text>
<text x="860" y="82" font-size="26" font-family="Helvetica, Arial, sans-serif" font-weight="700" fill="#1d4ed8">8 / 8</text>
<text x="938" y="82" font-size="11" font-family="Helvetica, Arial, sans-serif" fill="#475569">tracked virtue tracts above 68%</text>
<text x="860" y="102" font-size="11" font-family="Helvetica, Arial, sans-serif" fill="#475569">highest tract: 73.9% · lowest tract: 68.6%</text>
<text x="930" y="144" font-size="11" font-family="Helvetica, Arial, sans-serif" font-weight="700" fill="#065f46">Score</text>
<text x="1036" y="144" font-size="11" font-family="Helvetica, Arial, sans-serif" font-weight="700" fill="#64748b">Test rows</text>
<line x1="912" y1="130" x2="912" y2="720" stroke="#e2e8f0" stroke-width="1"/>
<line x1="1018" y1="130" x2="1018" y2="720" stroke="#e2e8f0" stroke-width="1"/>
<line x1="420.0" y1="158" x2="420.0" y2="722" stroke="#e2e8f0" stroke-width="1"/>
<text x="420.0" y="148" text-anchor="middle" font-size="11" font-family="Helvetica, Arial, sans-serif" fill="#64748b">0%</text>
<line x1="467.0" y1="158" x2="467.0" y2="722" stroke="#e2e8f0" stroke-width="1"/>
<text x="467.0" y="148" text-anchor="middle" font-size="11" font-family="Helvetica, Arial, sans-serif" fill="#64748b">10%</text>
<line x1="514.0" y1="158" x2="514.0" y2="722" stroke="#e2e8f0" stroke-width="1"/>
<text x="514.0" y="148" text-anchor="middle" font-size="11" font-family="Helvetica, Arial, sans-serif" fill="#64748b">20%</text>
<line x1="561.0" y1="158" x2="561.0" y2="722" stroke="#e2e8f0" stroke-width="1"/>
<text x="561.0" y="148" text-anchor="middle" font-size="11" font-family="Helvetica, Arial, sans-serif" fill="#64748b">30%</text>
<line x1="608.0" y1="158" x2="608.0" y2="722" stroke="#e2e8f0" stroke-width="1"/>
<text x="608.0" y="148" text-anchor="middle" font-size="11" font-family="Helvetica, Arial, sans-serif" fill="#64748b">40%</text>
<line x1="655.0" y1="158" x2="655.0" y2="722" stroke="#e2e8f0" stroke-width="1"/>
<text x="655.0" y="148" text-anchor="middle" font-size="11" font-family="Helvetica, Arial, sans-serif" fill="#64748b">50%</text>
<line x1="702.0" y1="158" x2="702.0" y2="722" stroke="#e2e8f0" stroke-width="1"/>
<text x="702.0" y="148" text-anchor="middle" font-size="11" font-family="Helvetica, Arial, sans-serif" fill="#64748b">60%</text>
<line x1="749.0" y1="158" x2="749.0" y2="722" stroke="#e2e8f0" stroke-width="1"/>
<text x="749.0" y="148" text-anchor="middle" font-size="11" font-family="Helvetica, Arial, sans-serif" fill="#64748b">70%</text>
<line x1="796.0" y1="158" x2="796.0" y2="722" stroke="#e2e8f0" stroke-width="1"/>
<text x="796.0" y="148" text-anchor="middle" font-size="11" font-family="Helvetica, Arial, sans-serif" fill="#64748b">80%</text>
<line x1="843.0" y1="158" x2="843.0" y2="722" stroke="#e2e8f0" stroke-width="1"/>
<text x="843.0" y="148" text-anchor="middle" font-size="11" font-family="Helvetica, Arial, sans-serif" fill="#64748b">90%</text>
<line x1="890.0" y1="158" x2="890.0" y2="722" stroke="#e2e8f0" stroke-width="1"/>
<text x="890.0" y="148" text-anchor="middle" font-size="11" font-family="Helvetica, Arial, sans-serif" fill="#64748b">100%</text>
<text x="72" y="190" font-size="14" font-family="Helvetica, Arial, sans-serif" font-weight="600" fill="#0f172a">Temperance (II-II qq.141-160)</text>
<text x="72" y="208" font-size="11" font-family="Helvetica, Arial, sans-serif" fill="#64748b">n=46</text>
<rect x="420" y="194" width="470" height="18" rx="9" fill="#f1f5f9"/>
<rect x="420" y="194" width="347.4" height="18" rx="9" fill="#0f766e"/>
<text x="930" y="207" font-size="11" font-family="Helvetica, Arial, sans-serif" font-weight="700" fill="#065f46">73.9%</text>
<text x="1036" y="207" font-size="11" font-family="Helvetica, Arial, sans-serif" font-weight="700" fill="#475569">46</text>
<text x="72" y="254" font-size="14" font-family="Helvetica, Arial, sans-serif" font-weight="600" fill="#0f172a">Theological virtues</text>
<text x="72" y="272" font-size="11" font-family="Helvetica, Arial, sans-serif" fill="#64748b">n=19</text>
<rect x="420" y="258" width="470" height="18" rx="9" fill="#f1f5f9"/>
<rect x="420" y="258" width="346.3" height="18" rx="9" fill="#0f766e"/>
<text x="930" y="271" font-size="11" font-family="Helvetica, Arial, sans-serif" font-weight="700" fill="#065f46">73.7%</text>
<text x="1036" y="271" font-size="11" font-family="Helvetica, Arial, sans-serif" font-weight="700" fill="#475569">19</text>
<text x="72" y="318" font-size="14" font-family="Helvetica, Arial, sans-serif" font-weight="600" fill="#0f172a">Temperance closure (II-II qq.161-170)</text>
<text x="72" y="336" font-size="11" font-family="Helvetica, Arial, sans-serif" fill="#64748b">n=11</text>
<rect x="420" y="322" width="470" height="18" rx="9" fill="#f1f5f9"/>
<rect x="420" y="322" width="341.8" height="18" rx="9" fill="#0f766e"/>
<text x="930" y="335" font-size="11" font-family="Helvetica, Arial, sans-serif" font-weight="700" fill="#065f46">72.7%</text>
<text x="1036" y="335" font-size="11" font-family="Helvetica, Arial, sans-serif" font-weight="700" fill="#475569">11</text>
<text x="72" y="382" font-size="14" font-family="Helvetica, Arial, sans-serif" font-weight="600" fill="#0f172a">Connected virtues (II-II qq.109-120)</text>
<text x="72" y="400" font-size="11" font-family="Helvetica, Arial, sans-serif" fill="#64748b">n=7</text>
<rect x="420" y="386" width="470" height="18" rx="9" fill="#f1f5f9"/>
<rect x="420" y="386" width="335.7" height="18" rx="9" fill="#0f766e"/>
<text x="930" y="399" font-size="11" font-family="Helvetica, Arial, sans-serif" font-weight="700" fill="#065f46">71.4%</text>
<text x="1036" y="399" font-size="11" font-family="Helvetica, Arial, sans-serif" font-weight="700" fill="#475569">7</text>
<text x="72" y="446" font-size="14" font-family="Helvetica, Arial, sans-serif" font-weight="600" fill="#0f172a">Justice core</text>
<text x="72" y="464" font-size="11" font-family="Helvetica, Arial, sans-serif" fill="#64748b">n=42</text>
<rect x="420" y="450" width="470" height="18" rx="9" fill="#f1f5f9"/>
<rect x="420" y="450" width="335.7" height="18" rx="9" fill="#0f766e"/>
<text x="930" y="463" font-size="11" font-family="Helvetica, Arial, sans-serif" font-weight="700" fill="#065f46">71.4%</text>
<text x="1036" y="463" font-size="11" font-family="Helvetica, Arial, sans-serif" font-weight="700" fill="#475569">42</text>
<text x="72" y="510" font-size="14" font-family="Helvetica, Arial, sans-serif" font-weight="600" fill="#0f172a">Fortitude closure (II-II qq.136-140)</text>
<text x="72" y="528" font-size="11" font-family="Helvetica, Arial, sans-serif" fill="#64748b">n=17</text>
<rect x="420" y="514" width="470" height="18" rx="9" fill="#f1f5f9"/>
<rect x="420" y="514" width="331.8" height="18" rx="9" fill="#0f766e"/>
<text x="930" y="527" font-size="11" font-family="Helvetica, Arial, sans-serif" font-weight="700" fill="#065f46">70.6%</text>
<text x="1036" y="527" font-size="11" font-family="Helvetica, Arial, sans-serif" font-weight="700" fill="#475569">17</text>
<text x="72" y="574" font-size="14" font-family="Helvetica, Arial, sans-serif" font-weight="600" fill="#0f172a">Prudence</text>
<text x="72" y="592" font-size="11" font-family="Helvetica, Arial, sans-serif" fill="#64748b">n=40</text>
<rect x="420" y="578" width="470" height="18" rx="9" fill="#f1f5f9"/>
<rect x="420" y="578" width="329.0" height="18" rx="9" fill="#0f766e"/>
<text x="930" y="591" font-size="11" font-family="Helvetica, Arial, sans-serif" font-weight="700" fill="#065f46">70.0%</text>
<text x="1036" y="591" font-size="11" font-family="Helvetica, Arial, sans-serif" font-weight="700" fill="#475569">40</text>
<text x="72" y="638" font-size="14" font-family="Helvetica, Arial, sans-serif" font-weight="600" fill="#0f172a">Fortitude parts (II-II qq.129-135)</text>
<text x="72" y="656" font-size="11" font-family="Helvetica, Arial, sans-serif" fill="#64748b">n=51</text>
<rect x="420" y="642" width="470" height="18" rx="9" fill="#f1f5f9"/>
<rect x="420" y="642" width="322.5" height="18" rx="9" fill="#0f766e"/>
<text x="930" y="655" font-size="11" font-family="Helvetica, Arial, sans-serif" font-weight="700" fill="#065f46">68.6%</text>
<text x="1036" y="655" font-size="11" font-family="Helvetica, Arial, sans-serif" font-weight="700" fill="#475569">51</text>
<text x="655.0" y="742" font-size="12" font-family="Helvetica, Arial, sans-serif" text-anchor="middle" fill="#475569">Held-out exact citation match</text>
</svg>
