<svg xmlns="http://www.w3.org/2000/svg" width="1180" height="720" viewBox="0 0 1180 720" role="img" aria-labelledby="title desc">
<title id='title'>Full-corpus held-out doctrinal gains</title>
<desc id='desc'>Comparison between the canonical local baseline and the completed full-corpus local run on the strongest held-out doctrinal Christian virtue slices.</desc>
<rect width="100%" height="100%" fill="#f8fafc"/>
<rect x="24" y="18" width="1132" height="684" rx="18" fill="#ffffff" stroke="#d4d4d8" stroke-width="1.5"/>
<text x="72" y="52" font-size="28" font-family="Georgia, serif" fill="#0f172a">Full-Corpus Held-Out Doctrinal Gains</text>
<text x="72" y="76" font-size="13" font-family="Helvetica, Arial, sans-serif" fill="#475569">Qwen/Qwen2.5-1.5B-Instruct on all 1,475 reviewed train rows and all 175 val rows; 233 held-out test rows remain untouched.</text>
<rect x="838" y="32" width="252" height="82" rx="16" fill="#ecfdf5" stroke="#10b981" stroke-width="1.5"/>
<text x="860" y="56" font-size="11" font-family="Helvetica, Arial, sans-serif" font-weight="700" fill="#047857">Best full-data local result</text>
<text x="860" y="84" font-size="26" font-family="Helvetica, Arial, sans-serif" font-weight="700" fill="#065f46">71.2%</text>
<text x="958" y="84" font-size="13" font-family="Helvetica, Arial, sans-serif" font-weight="700" fill="#b45309">+34.8 pts</text>
<text x="860" y="102" font-size="11" font-family="Helvetica, Arial, sans-serif" fill="#065f46">Held-out exact citation vs canonical local baseline</text>
<circle cx="72" cy="128" r="6" fill="#2563eb"/>
<text x="86" y="133" font-size="13" font-family="Helvetica, Arial, sans-serif" fill="#334155">Baseline</text>
<circle cx="204" cy="128" r="6" fill="#0f766e"/>
<text x="218" y="133" font-size="13" font-family="Helvetica, Arial, sans-serif" fill="#334155">Full-corpus</text>
<text x="958" y="156" font-size="11" font-family="Helvetica, Arial, sans-serif" font-weight="700" fill="#065f46">Full-corpus</text>
<text x="1042" y="156" font-size="11" font-family="Helvetica, Arial, sans-serif" font-weight="700" fill="#92400e">Gain</text>
<line x1="940" y1="142" x2="940" y2="678" stroke="#e2e8f0" stroke-width="1"/>
<line x1="1024" y1="142" x2="1024" y2="678" stroke="#e2e8f0" stroke-width="1"/>
<text x="662.0" y="702" font-size="12" font-family="Helvetica, Arial, sans-serif" text-anchor="middle" fill="#475569">Held-out exact citation match</text>
<line x1="392.0" y1="160" x2="392.0" y2="676" stroke="#e2e8f0" stroke-width="1"/>
<text x="392.0" y="150" text-anchor="middle" font-size="11" font-family="Helvetica, Arial, sans-serif" fill="#64748b">0%</text>
<line x1="446.0" y1="160" x2="446.0" y2="676" stroke="#e2e8f0" stroke-width="1"/>
<text x="446.0" y="150" text-anchor="middle" font-size="11" font-family="Helvetica, Arial, sans-serif" fill="#64748b">10%</text>
<line x1="500.0" y1="160" x2="500.0" y2="676" stroke="#e2e8f0" stroke-width="1"/>
<text x="500.0" y="150" text-anchor="middle" font-size="11" font-family="Helvetica, Arial, sans-serif" fill="#64748b">20%</text>
<line x1="554.0" y1="160" x2="554.0" y2="676" stroke="#e2e8f0" stroke-width="1"/>
<text x="554.0" y="150" text-anchor="middle" font-size="11" font-family="Helvetica, Arial, sans-serif" fill="#64748b">30%</text>
<line x1="608.0" y1="160" x2="608.0" y2="676" stroke="#e2e8f0" stroke-width="1"/>
<text x="608.0" y="150" text-anchor="middle" font-size="11" font-family="Helvetica, Arial, sans-serif" fill="#64748b">40%</text>
<line x1="662.0" y1="160" x2="662.0" y2="676" stroke="#e2e8f0" stroke-width="1"/>
<text x="662.0" y="150" text-anchor="middle" font-size="11" font-family="Helvetica, Arial, sans-serif" fill="#64748b">50%</text>
<line x1="716.0" y1="160" x2="716.0" y2="676" stroke="#e2e8f0" stroke-width="1"/>
<text x="716.0" y="150" text-anchor="middle" font-size="11" font-family="Helvetica, Arial, sans-serif" fill="#64748b">60%</text>
<line x1="770.0" y1="160" x2="770.0" y2="676" stroke="#e2e8f0" stroke-width="1"/>
<text x="770.0" y="150" text-anchor="middle" font-size="11" font-family="Helvetica, Arial, sans-serif" fill="#64748b">70%</text>
<line x1="824.0" y1="160" x2="824.0" y2="676" stroke="#e2e8f0" stroke-width="1"/>
<text x="824.0" y="150" text-anchor="middle" font-size="11" font-family="Helvetica, Arial, sans-serif" fill="#64748b">80%</text>
<line x1="878.0" y1="160" x2="878.0" y2="676" stroke="#e2e8f0" stroke-width="1"/>
<text x="878.0" y="150" text-anchor="middle" font-size="11" font-family="Helvetica, Arial, sans-serif" fill="#64748b">90%</text>
<line x1="932.0" y1="160" x2="932.0" y2="676" stroke="#e2e8f0" stroke-width="1"/>
<text x="932.0" y="150" text-anchor="middle" font-size="11" font-family="Helvetica, Arial, sans-serif" fill="#64748b">100%</text>
<text x="72" y="206" font-size="15" font-family="Helvetica, Arial, sans-serif" font-weight="600" fill="#0f172a">Overall held-out exact citation</text>
<text x="72" y="224" font-size="12" font-family="Helvetica, Arial, sans-serif" fill="#64748b">n=233</text>
<rect x="392" y="214" width="540" height="20" rx="10" fill="#f8fafc"/>
<rect x="392" y="214" width="384.7" height="20" rx="10" fill="#0f766e"/>
<line x1="589.0" y1="208" x2="589.0" y2="240" stroke="#2563eb" stroke-width="3" stroke-linecap="round"/>
<text x="589.0" y="202" font-size="11" font-family="Helvetica, Arial, sans-serif" text-anchor="middle" fill="#2563eb">36.5%</text>
<text x="958" y="228" font-size="12" font-family="Helvetica, Arial, sans-serif" font-weight="700" fill="#065f46">71.2%</text>
<text x="1042" y="228" font-size="12" font-family="Helvetica, Arial, sans-serif" font-weight="700" fill="#b45309">+34.8 pts</text>
<text x="72" y="282" font-size="15" font-family="Helvetica, Arial, sans-serif" font-weight="600" fill="#0f172a">Passage-grounded doctrinal QA</text>
<text x="72" y="300" font-size="12" font-family="Helvetica, Arial, sans-serif" fill="#64748b">n=67</text>
<rect x="392" y="290" width="540" height="20" rx="10" fill="#f8fafc"/>
<rect x="392" y="290" width="540.0" height="20" rx="10" fill="#0f766e"/>
<line x1="569.3" y1="284" x2="569.3" y2="316" stroke="#2563eb" stroke-width="3" stroke-linecap="round"/>
<text x="569.3" y="278" font-size="11" font-family="Helvetica, Arial, sans-serif" text-anchor="middle" fill="#2563eb">32.8%</text>
<text x="958" y="304" font-size="12" font-family="Helvetica, Arial, sans-serif" font-weight="700" fill="#065f46">100.0%</text>
<text x="1042" y="304" font-size="12" font-family="Helvetica, Arial, sans-serif" font-weight="700" fill="#b45309">+67.2 pts</text>
<text x="72" y="358" font-size="15" font-family="Helvetica, Arial, sans-serif" font-weight="600" fill="#0f172a">Reviewed relation explanation</text>
<text x="72" y="376" font-size="12" font-family="Helvetica, Arial, sans-serif" fill="#64748b">n=67</text>
<rect x="392" y="366" width="540" height="20" rx="10" fill="#f8fafc"/>
<rect x="392" y="366" width="540.0" height="20" rx="10" fill="#0f766e"/>
<line x1="730.5" y1="360" x2="730.5" y2="392" stroke="#2563eb" stroke-width="3" stroke-linecap="round"/>
<text x="730.5" y="354" font-size="11" font-family="Helvetica, Arial, sans-serif" text-anchor="middle" fill="#2563eb">62.7%</text>
<text x="958" y="380" font-size="12" font-family="Helvetica, Arial, sans-serif" font-weight="700" fill="#065f46">100.0%</text>
<text x="1042" y="380" font-size="12" font-family="Helvetica, Arial, sans-serif" font-weight="700" fill="#b45309">+37.3 pts</text>
<text x="72" y="434" font-size="15" font-family="Helvetica, Arial, sans-serif" font-weight="600" fill="#0f172a">Virtue concept explanation</text>
<text x="72" y="452" font-size="12" font-family="Helvetica, Arial, sans-serif" fill="#64748b">n=32</text>
<rect x="392" y="442" width="540" height="20" rx="10" fill="#f8fafc"/>
<rect x="392" y="442" width="540.0" height="20" rx="10" fill="#0f766e"/>
<line x1="746.4" y1="436" x2="746.4" y2="468" stroke="#2563eb" stroke-width="3" stroke-linecap="round"/>
<text x="746.4" y="430" font-size="11" font-family="Helvetica, Arial, sans-serif" text-anchor="middle" fill="#2563eb">65.6%</text>
<text x="958" y="456" font-size="12" font-family="Helvetica, Arial, sans-serif" font-weight="700" fill="#065f46">100.0%</text>
<text x="1042" y="456" font-size="12" font-family="Helvetica, Arial, sans-serif" font-weight="700" fill="#b45309">+34.4 pts</text>
<text x="72" y="510" font-size="15" font-family="Helvetica, Arial, sans-serif" font-weight="600" fill="#0f172a">Justice core tract</text>
<text x="72" y="528" font-size="12" font-family="Helvetica, Arial, sans-serif" fill="#64748b">n=42</text>
<rect x="392" y="518" width="540" height="20" rx="10" fill="#f8fafc"/>
<rect x="392" y="518" width="385.7" height="20" rx="10" fill="#0f766e"/>
<line x1="662.0" y1="512" x2="662.0" y2="544" stroke="#2563eb" stroke-width="3" stroke-linecap="round"/>
<text x="662.0" y="506" font-size="11" font-family="Helvetica, Arial, sans-serif" text-anchor="middle" fill="#2563eb">50.0%</text>
<text x="958" y="532" font-size="12" font-family="Helvetica, Arial, sans-serif" font-weight="700" fill="#065f46">71.4%</text>
<text x="1042" y="532" font-size="12" font-family="Helvetica, Arial, sans-serif" font-weight="700" fill="#b45309">+21.4 pts</text>
<text x="72" y="586" font-size="15" font-family="Helvetica, Arial, sans-serif" font-weight="600" fill="#0f172a">Strong textual inference</text>
<text x="72" y="604" font-size="12" font-family="Helvetica, Arial, sans-serif" fill="#64748b">n=35</text>
<rect x="392" y="594" width="540" height="20" rx="10" fill="#f8fafc"/>
<rect x="392" y="594" width="385.7" height="20" rx="10" fill="#0f766e"/>
<line x1="654.3" y1="588" x2="654.3" y2="620" stroke="#2563eb" stroke-width="3" stroke-linecap="round"/>
<text x="654.3" y="582" font-size="11" font-family="Helvetica, Arial, sans-serif" text-anchor="middle" fill="#2563eb">48.6%</text>
<text x="958" y="608" font-size="12" font-family="Helvetica, Arial, sans-serif" font-weight="700" fill="#065f46">71.4%</text>
<text x="1042" y="608" font-size="12" font-family="Helvetica, Arial, sans-serif" font-weight="700" fill="#b45309">+22.9 pts</text>
</svg>
