<svg xmlns="http://www.w3.org/2000/svg" width="1180" height="742" viewBox="0 0 1180 742" role="img" aria-labelledby="title desc">
<title id='title'>Held-out virtue tract profile after full-corpus LoRA</title>
<desc id='desc'>Single-series tract profile for the completed full-corpus Christian virtue LoRA run, showing held-out exact citation by tract.</desc>
<rect width="100%" height="100%" fill="#f8fafc"/>
<rect x="24" y="18" width="1132" height="706" rx="18" fill="#ffffff" stroke="#d4d4d8" stroke-width="1.5"/>
<text x="72" y="52" font-size="28" font-family="Georgia, serif" fill="#0f172a">Held-Out Virtue Tract Profile</text>
<text x="72" y="78" font-size="13" font-family="Helvetica, Arial, sans-serif" fill="#475569">After full-corpus LoRA, all eight tracked virtue tracts cluster between 68.6% and 73.9% exact citation on untouched test prompts.</text>
<text x="930" y="124" font-size="11" font-family="Helvetica, Arial, sans-serif" font-weight="700" fill="#0f766e">Score</text>
<text x="1036" y="124" font-size="11" font-family="Helvetica, Arial, sans-serif" font-weight="700" fill="#64748b">Test rows</text>
<line x1="912" y1="110" x2="912" y2="700" stroke="#e2e8f0" stroke-width="1"/>
<line x1="1018" y1="110" x2="1018" y2="700" stroke="#e2e8f0" stroke-width="1"/>
<line x1="420.0" y1="138" x2="420.0" y2="702" stroke="#e2e8f0" stroke-width="1"/>
<text x="420.0" y="128" text-anchor="middle" font-size="11" font-family="Helvetica, Arial, sans-serif" fill="#64748b">0%</text>
<line x1="467.0" y1="138" x2="467.0" y2="702" stroke="#e2e8f0" stroke-width="1"/>
<text x="467.0" y="128" text-anchor="middle" font-size="11" font-family="Helvetica, Arial, sans-serif" fill="#64748b">10%</text>
<line x1="514.0" y1="138" x2="514.0" y2="702" stroke="#e2e8f0" stroke-width="1"/>
<text x="514.0" y="128" text-anchor="middle" font-size="11" font-family="Helvetica, Arial, sans-serif" fill="#64748b">20%</text>
<line x1="561.0" y1="138" x2="561.0" y2="702" stroke="#e2e8f0" stroke-width="1"/>
<text x="561.0" y="128" text-anchor="middle" font-size="11" font-family="Helvetica, Arial, sans-serif" fill="#64748b">30%</text>
<line x1="608.0" y1="138" x2="608.0" y2="702" stroke="#e2e8f0" stroke-width="1"/>
<text x="608.0" y="128" text-anchor="middle" font-size="11" font-family="Helvetica, Arial, sans-serif" fill="#64748b">40%</text>
<line x1="655.0" y1="138" x2="655.0" y2="702" stroke="#e2e8f0" stroke-width="1"/>
<text x="655.0" y="128" text-anchor="middle" font-size="11" font-family="Helvetica, Arial, sans-serif" fill="#64748b">50%</text>
<line x1="702.0" y1="138" x2="702.0" y2="702" stroke="#e2e8f0" stroke-width="1"/>
<text x="702.0" y="128" text-anchor="middle" font-size="11" font-family="Helvetica, Arial, sans-serif" fill="#64748b">60%</text>
<line x1="749.0" y1="138" x2="749.0" y2="702" stroke="#e2e8f0" stroke-width="1"/>
<text x="749.0" y="128" text-anchor="middle" font-size="11" font-family="Helvetica, Arial, sans-serif" fill="#64748b">70%</text>
<line x1="796.0" y1="138" x2="796.0" y2="702" stroke="#e2e8f0" stroke-width="1"/>
<text x="796.0" y="128" text-anchor="middle" font-size="11" font-family="Helvetica, Arial, sans-serif" fill="#64748b">80%</text>
<line x1="843.0" y1="138" x2="843.0" y2="702" stroke="#e2e8f0" stroke-width="1"/>
<text x="843.0" y="128" text-anchor="middle" font-size="11" font-family="Helvetica, Arial, sans-serif" fill="#64748b">90%</text>
<line x1="890.0" y1="138" x2="890.0" y2="702" stroke="#e2e8f0" stroke-width="1"/>
<text x="890.0" y="128" text-anchor="middle" font-size="11" font-family="Helvetica, Arial, sans-serif" fill="#64748b">100%</text>
<text x="72" y="170" font-size="14" font-family="Helvetica, Arial, sans-serif" font-weight="600" fill="#0f172a">Temperance (qq.141-160)</text>
<text x="72" y="188" font-size="11" font-family="Helvetica, Arial, sans-serif" fill="#64748b">n=46</text>
<rect x="420" y="174" width="470" height="18" rx="9" fill="#f1f5f9"/>
<rect x="420" y="174" width="347.4" height="18" rx="9" fill="#0f766e"/>
<text x="930" y="187" font-size="11" font-family="Helvetica, Arial, sans-serif" font-weight="700" fill="#0f766e">73.9%</text>
<text x="1036" y="187" font-size="11" font-family="Helvetica, Arial, sans-serif" font-weight="700" fill="#475569">46</text>
<text x="72" y="234" font-size="14" font-family="Helvetica, Arial, sans-serif" font-weight="600" fill="#0f172a">Theological virtues</text>
<text x="72" y="252" font-size="11" font-family="Helvetica, Arial, sans-serif" fill="#64748b">n=19</text>
<rect x="420" y="238" width="470" height="18" rx="9" fill="#f1f5f9"/>
<rect x="420" y="238" width="346.3" height="18" rx="9" fill="#0f766e"/>
<text x="930" y="251" font-size="11" font-family="Helvetica, Arial, sans-serif" font-weight="700" fill="#0f766e">73.7%</text>
<text x="1036" y="251" font-size="11" font-family="Helvetica, Arial, sans-serif" font-weight="700" fill="#475569">19</text>
<text x="72" y="298" font-size="14" font-family="Helvetica, Arial, sans-serif" font-weight="600" fill="#0f172a">Temperance (qq.161-170)</text>
<text x="72" y="316" font-size="11" font-family="Helvetica, Arial, sans-serif" fill="#64748b">n=11</text>
<rect x="420" y="302" width="470" height="18" rx="9" fill="#f1f5f9"/>
<rect x="420" y="302" width="341.8" height="18" rx="9" fill="#0f766e"/>
<text x="930" y="315" font-size="11" font-family="Helvetica, Arial, sans-serif" font-weight="700" fill="#0f766e">72.7%</text>
<text x="1036" y="315" font-size="11" font-family="Helvetica, Arial, sans-serif" font-weight="700" fill="#475569">11</text>
<text x="72" y="362" font-size="14" font-family="Helvetica, Arial, sans-serif" font-weight="600" fill="#0f172a">Connected virtues (qq.109-120)</text>
<text x="72" y="380" font-size="11" font-family="Helvetica, Arial, sans-serif" fill="#64748b">n=7</text>
<rect x="420" y="366" width="470" height="18" rx="9" fill="#f1f5f9"/>
<rect x="420" y="366" width="335.7" height="18" rx="9" fill="#0f766e"/>
<text x="930" y="379" font-size="11" font-family="Helvetica, Arial, sans-serif" font-weight="700" fill="#0f766e">71.4%</text>
<text x="1036" y="379" font-size="11" font-family="Helvetica, Arial, sans-serif" font-weight="700" fill="#475569">7</text>
<text x="72" y="426" font-size="14" font-family="Helvetica, Arial, sans-serif" font-weight="600" fill="#0f172a">Justice core</text>
<text x="72" y="444" font-size="11" font-family="Helvetica, Arial, sans-serif" fill="#64748b">n=42</text>
<rect x="420" y="430" width="470" height="18" rx="9" fill="#f1f5f9"/>
<rect x="420" y="430" width="335.7" height="18" rx="9" fill="#0f766e"/>
<text x="930" y="443" font-size="11" font-family="Helvetica, Arial, sans-serif" font-weight="700" fill="#0f766e">71.4%</text>
<text x="1036" y="443" font-size="11" font-family="Helvetica, Arial, sans-serif" font-weight="700" fill="#475569">42</text>
<text x="72" y="490" font-size="14" font-family="Helvetica, Arial, sans-serif" font-weight="600" fill="#0f172a">Fortitude (qq.136-140)</text>
<text x="72" y="508" font-size="11" font-family="Helvetica, Arial, sans-serif" fill="#64748b">n=17</text>
<rect x="420" y="494" width="470" height="18" rx="9" fill="#f1f5f9"/>
<rect x="420" y="494" width="331.8" height="18" rx="9" fill="#0f766e"/>
<text x="930" y="507" font-size="11" font-family="Helvetica, Arial, sans-serif" font-weight="700" fill="#0f766e">70.6%</text>
<text x="1036" y="507" font-size="11" font-family="Helvetica, Arial, sans-serif" font-weight="700" fill="#475569">17</text>
<text x="72" y="554" font-size="14" font-family="Helvetica, Arial, sans-serif" font-weight="600" fill="#0f172a">Prudence</text>
<text x="72" y="572" font-size="11" font-family="Helvetica, Arial, sans-serif" fill="#64748b">n=40</text>
<rect x="420" y="558" width="470" height="18" rx="9" fill="#f1f5f9"/>
<rect x="420" y="558" width="329.0" height="18" rx="9" fill="#0f766e"/>
<text x="930" y="571" font-size="11" font-family="Helvetica, Arial, sans-serif" font-weight="700" fill="#0f766e">70.0%</text>
<text x="1036" y="571" font-size="11" font-family="Helvetica, Arial, sans-serif" font-weight="700" fill="#475569">40</text>
<text x="72" y="618" font-size="14" font-family="Helvetica, Arial, sans-serif" font-weight="600" fill="#0f172a">Fortitude parts (qq.129-135)</text>
<text x="72" y="636" font-size="11" font-family="Helvetica, Arial, sans-serif" fill="#64748b">n=51</text>
<rect x="420" y="622" width="470" height="18" rx="9" fill="#f1f5f9"/>
<rect x="420" y="622" width="322.5" height="18" rx="9" fill="#0f766e"/>
<text x="930" y="635" font-size="11" font-family="Helvetica, Arial, sans-serif" font-weight="700" fill="#0f766e">68.6%</text>
<text x="1036" y="635" font-size="11" font-family="Helvetica, Arial, sans-serif" font-weight="700" fill="#475569">51</text>
<text x="655.0" y="722" font-size="12" font-family="Helvetica, Arial, sans-serif" text-anchor="middle" fill="#475569">Held-out exact citation match</text>
</svg>
