<svg xmlns="http://www.w3.org/2000/svg" width="1240" height="820" viewBox="0 0 1240 820" role="img" aria-label="Positive benchmark deltas for the final full-corpus LoRA">
<rect x="0" y="0" width="1240" height="820" rx="0" fill="#f8fafc"/>
<rect x="24" y="18" width="1192" height="784" rx="18" fill="#ffffff" stroke="#d4d4d8"/>
<text x="64" y="58" font-family="Helvetica, Arial, sans-serif" font-size="28" fill="#0f172a" font-weight="700">Positive Benchmark Deltas</text>
<text x="64" y="84" font-family="Helvetica, Arial, sans-serif" font-size="14" fill="#475569">Every row is LoRA minus base; only positive rows are included.</text>
<rect x="64" y="106" width="248" height="34" rx="10" fill="#ecfdf5" stroke="#a7f3d0"/>
<text x="80" y="128" font-family="Helvetica, Arial, sans-serif" font-size="13" fill="#047857" font-weight="700">10 LoRA-positive benchmark rows</text>
<text x="366" y="112" font-family="Helvetica, Arial, sans-serif" font-size="12" fill="#334155" font-weight="700">LoRA gain over base</text>
<text x="960" y="112" font-family="Helvetica, Arial, sans-serif" font-size="12" fill="#334155" font-weight="700">Delta</text>
<text x="1062" y="112" font-family="Helvetica, Arial, sans-serif" font-size="12" fill="#334155" font-weight="700">Base -&gt; LoRA</text>
<line x1="366.0" y1="128.0" x2="366.0" y2="762.0" stroke="#eef2f7" stroke-width="1.0"/>
<text x="366" y="120" font-family="Helvetica, Arial, sans-serif" font-size="10" fill="#64748b" text-anchor="middle">+0.0 pp</text>
<line x1="506.0" y1="128.0" x2="506.0" y2="762.0" stroke="#eef2f7" stroke-width="1.0"/>
<text x="506" y="120" font-family="Helvetica, Arial, sans-serif" font-size="10" fill="#64748b" text-anchor="middle">+25.0 pp</text>
<line x1="646.0" y1="128.0" x2="646.0" y2="762.0" stroke="#eef2f7" stroke-width="1.0"/>
<text x="646" y="120" font-family="Helvetica, Arial, sans-serif" font-size="10" fill="#64748b" text-anchor="middle">+50.0 pp</text>
<line x1="786.0" y1="128.0" x2="786.0" y2="762.0" stroke="#eef2f7" stroke-width="1.0"/>
<text x="786" y="120" font-family="Helvetica, Arial, sans-serif" font-size="10" fill="#64748b" text-anchor="middle">+75.0 pp</text>
<line x1="926.0" y1="128.0" x2="926.0" y2="762.0" stroke="#eef2f7" stroke-width="1.0"/>
<text x="926" y="120" font-family="Helvetica, Arial, sans-serif" font-size="10" fill="#64748b" text-anchor="middle">+100.0 pp</text>
<line x1="942.0" y1="102.0" x2="942.0" y2="768.0" stroke="#e2e8f0" stroke-width="1.0"/>
<line x1="1044.0" y1="102.0" x2="1044.0" y2="768.0" stroke="#e2e8f0" stroke-width="1.0"/>
<text x="64" y="166" font-family="Helvetica, Arial, sans-serif" font-size="13" fill="#0f172a" font-weight="700">Held-out Summa citation exact</text>
<text x="64" y="184" font-family="Helvetica, Arial, sans-serif" font-size="11" fill="#64748b">In-domain held-out</text>
<rect x="366" y="156" width="560" height="20" rx="5" fill="#f8fafc" stroke="#e2e8f0"/>
<rect x="366" y="156" width="398" height="20" rx="5" fill="#0f766e"/>
<text x="960" y="171" font-family="Helvetica, Arial, sans-serif" font-size="13" fill="#0f172a" font-weight="700">+71.2 pp</text>
<text x="1062" y="171" font-family="Helvetica, Arial, sans-serif" font-size="12" fill="#475569">0.0% -&gt; 71.2%</text>
<rect x="48" y="198" width="1144" height="54" rx="10" fill="#fbfdff"/>
<text x="64" y="224" font-family="Helvetica, Arial, sans-serif" font-size="13" fill="#0f172a" font-weight="700">Aquinas grounding probe score</text>
<text x="64" y="242" font-family="Helvetica, Arial, sans-serif" font-size="11" fill="#64748b">In-domain grounding</text>
<rect x="366" y="214" width="560" height="20" rx="5" fill="#f8fafc" stroke="#e2e8f0"/>
<rect x="366" y="214" width="204" height="20" rx="5" fill="#0f766e"/>
<text x="960" y="229" font-family="Helvetica, Arial, sans-serif" font-size="13" fill="#0f172a" font-weight="700">+36.5 pp</text>
<text x="1062" y="229" font-family="Helvetica, Arial, sans-serif" font-size="12" fill="#475569">37.7% -&gt; 74.2%</text>
<text x="64" y="282" font-family="Helvetica, Arial, sans-serif" font-size="13" fill="#0f172a" font-weight="700">Aquinas segment-id citation presence</text>
<text x="64" y="300" font-family="Helvetica, Arial, sans-serif" font-size="11" fill="#64748b">In-domain grounding</text>
<rect x="366" y="272" width="560" height="20" rx="5" fill="#f8fafc" stroke="#e2e8f0"/>
<rect x="366" y="272" width="560" height="20" rx="5" fill="#0f766e"/>
<text x="960" y="287" font-family="Helvetica, Arial, sans-serif" font-size="13" fill="#0f172a" font-weight="700">+100.0 pp</text>
<text x="1062" y="287" font-family="Helvetica, Arial, sans-serif" font-size="12" fill="#475569">0.0% -&gt; 100.0%</text>
<rect x="48" y="314" width="1144" height="54" rx="10" fill="#fbfdff"/>
<text x="64" y="340" font-family="Helvetica, Arial, sans-serif" font-size="13" fill="#0f172a" font-weight="700">VirtueBench V2 random</text>
<text x="64" y="358" font-family="Helvetica, Arial, sans-serif" font-size="11" fill="#64748b">Virtue diagnostic</text>
<rect x="366" y="330" width="560" height="20" rx="5" fill="#f8fafc" stroke="#e2e8f0"/>
<rect x="366" y="330" width="158" height="20" rx="5" fill="#0f766e"/>
<text x="960" y="345" font-family="Helvetica, Arial, sans-serif" font-size="13" fill="#0f172a" font-weight="700">+28.3 pp</text>
<text x="1062" y="345" font-family="Helvetica, Arial, sans-serif" font-size="12" fill="#475569">29.7% -&gt; 58.0%</text>
<text x="64" y="398" font-family="Helvetica, Arial, sans-serif" font-size="13" fill="#0f172a" font-weight="700">VirtueBench V2 paired</text>
<text x="64" y="416" font-family="Helvetica, Arial, sans-serif" font-size="11" fill="#64748b">Virtue diagnostic</text>
<rect x="366" y="388" width="560" height="20" rx="5" fill="#f8fafc" stroke="#e2e8f0"/>
<rect x="366" y="388" width="86" height="20" rx="5" fill="#0f766e"/>
<text x="960" y="403" font-family="Helvetica, Arial, sans-serif" font-size="13" fill="#0f172a" font-weight="700">+15.5 pp</text>
<text x="1062" y="403" font-family="Helvetica, Arial, sans-serif" font-size="12" fill="#475569">34.0% -&gt; 49.5%</text>
<rect x="48" y="430" width="1144" height="54" rx="10" fill="#fbfdff"/>
<text x="64" y="456" font-family="Helvetica, Arial, sans-serif" font-size="13" fill="#0f172a" font-weight="700">MMLU world religions</text>
<text x="64" y="474" font-family="Helvetica, Arial, sans-serif" font-size="11" fill="#64748b">External English transfer</text>
<rect x="366" y="446" width="560" height="20" rx="5" fill="#f8fafc" stroke="#e2e8f0"/>
<rect x="366" y="446" width="27" height="20" rx="5" fill="#0f766e"/>
<text x="960" y="461" font-family="Helvetica, Arial, sans-serif" font-size="13" fill="#0f172a" font-weight="700">+5.0 pp</text>
<text x="1062" y="461" font-family="Helvetica, Arial, sans-serif" font-size="12" fill="#475569">76.7% -&gt; 81.7%</text>
<text x="64" y="514" font-family="Helvetica, Arial, sans-serif" font-size="13" fill="#0f172a" font-weight="700">MMMLU-ZH business ethics</text>
<text x="64" y="532" font-family="Helvetica, Arial, sans-serif" font-size="11" fill="#64748b">External Chinese transfer</text>
<rect x="366" y="504" width="560" height="20" rx="5" fill="#f8fafc" stroke="#e2e8f0"/>
<rect x="366" y="504" width="18" height="20" rx="5" fill="#0f766e"/>
<text x="960" y="519" font-family="Helvetica, Arial, sans-serif" font-size="13" fill="#0f172a" font-weight="700">+3.3 pp</text>
<text x="1062" y="519" font-family="Helvetica, Arial, sans-serif" font-size="12" fill="#475569">58.3% -&gt; 61.7%</text>
<rect x="48" y="546" width="1144" height="54" rx="10" fill="#fbfdff"/>
<text x="64" y="572" font-family="Helvetica, Arial, sans-serif" font-size="13" fill="#0f172a" font-weight="700">MMMLU-ZH moral scenarios</text>
<text x="64" y="590" font-family="Helvetica, Arial, sans-serif" font-size="11" fill="#64748b">External Chinese transfer</text>
<rect x="366" y="562" width="560" height="20" rx="5" fill="#f8fafc" stroke="#e2e8f0"/>
<rect x="366" y="562" width="18" height="20" rx="5" fill="#0f766e"/>
<text x="960" y="577" font-family="Helvetica, Arial, sans-serif" font-size="13" fill="#0f172a" font-weight="700">+3.3 pp</text>
<text x="1062" y="577" font-family="Helvetica, Arial, sans-serif" font-size="12" fill="#475569">25.0% -&gt; 28.3%</text>
<text x="64" y="630" font-family="Helvetica, Arial, sans-serif" font-size="13" fill="#0f172a" font-weight="700">MMMLU-ZH philosophy</text>
<text x="64" y="648" font-family="Helvetica, Arial, sans-serif" font-size="11" fill="#64748b">External Chinese transfer</text>
<rect x="366" y="620" width="560" height="20" rx="5" fill="#f8fafc" stroke="#e2e8f0"/>
<rect x="366" y="620" width="9" height="20" rx="5" fill="#0f766e"/>
<text x="960" y="635" font-family="Helvetica, Arial, sans-serif" font-size="13" fill="#0f172a" font-weight="700">+1.7 pp</text>
<text x="1062" y="635" font-family="Helvetica, Arial, sans-serif" font-size="12" fill="#475569">53.3% -&gt; 55.0%</text>
<rect x="48" y="662" width="1144" height="54" rx="10" fill="#fbfdff"/>
<text x="64" y="688" font-family="Helvetica, Arial, sans-serif" font-size="13" fill="#0f172a" font-weight="700">MMLU moral scenarios</text>
<text x="64" y="706" font-family="Helvetica, Arial, sans-serif" font-size="11" fill="#64748b">External English transfer</text>
<rect x="366" y="678" width="560" height="20" rx="5" fill="#f8fafc" stroke="#e2e8f0"/>
<rect x="366" y="678" width="9" height="20" rx="5" fill="#0f766e"/>
<text x="960" y="693" font-family="Helvetica, Arial, sans-serif" font-size="13" fill="#0f172a" font-weight="700">+1.7 pp</text>
<text x="1062" y="693" font-family="Helvetica, Arial, sans-serif" font-size="12" fill="#475569">26.7% -&gt; 28.3%</text>
</svg>
