<svg xmlns="http://www.w3.org/2000/svg" width="1040" height="430" viewBox="0 0 1040 430" role="img" aria-label="Local training time comparison for local-baseline and extended Christian virtue runs">
<rect x="0" y="0" width="1040" height="430" fill="#f8fafc" />
<rect x="24" y="18" width="992" height="390" fill="white" stroke="#d4d4d8" stroke-width="1.5" rx="18" />
<text x="56" y="44" font-size="20" font-weight="700" fill="#111827">Local training time by logged step</text>
<text x="56" y="64" font-size="12" fill="#4b5563">Why the small `local-baseline` rung is the reproducible public path on a 16 GB Apple-Silicon laptop</text>
<rect x="740" y="34" width="236" height="52" fill="#eff6ff" stroke="#bfdbfe" stroke-width="1" rx="12" />
<text x="756" y="54" font-size="11" font-weight="700" fill="#1d4ed8">Operational takeaway</text>
<text x="756" y="72" font-size="12" fill="#1f2937">20 logged steps in 16.2m vs 3.93h</text>
<circle cx="748" cy="110" r="6" fill="#dc2626" />
<text x="760" y="114" font-size="12" fill="#374151">Interrupted extended run</text>
<circle cx="902" cy="110" r="6" fill="#2563eb" />
<text x="914" y="114" font-size="12" fill="#374151">local-baseline</text>
<line x1="120" y1="126" x2="120" y2="362" stroke="#9ca3af" stroke-width="1.5" />
<line x1="120" y1="362" x2="980" y2="362" stroke="#9ca3af" stroke-width="1.5" />
<text x="38" y="244" font-size="12" fill="#374151" text-anchor="middle" transform="rotate(-90 38 244)">Elapsed wall-clock time (hours)</text>
<text x="550" y="394" font-size="12" text-anchor="middle" fill="#374151">Logged training step</text>
<line x1="120" y1="362" x2="980" y2="362" stroke="#e5e7eb" stroke-width="1" />
<text x="110" y="366" font-size="11" text-anchor="end" fill="#4b5563">0.0h</text>
<line x1="120" y1="303" x2="980" y2="303" stroke="#e5e7eb" stroke-width="1" />
<text x="110" y="307" font-size="11" text-anchor="end" fill="#4b5563">1.0h</text>
<line x1="120" y1="244" x2="980" y2="244" stroke="#e5e7eb" stroke-width="1" />
<text x="110" y="248" font-size="11" text-anchor="end" fill="#4b5563">2.0h</text>
<line x1="120" y1="185" x2="980" y2="185" stroke="#e5e7eb" stroke-width="1" />
<text x="110" y="189" font-size="11" text-anchor="end" fill="#4b5563">3.0h</text>
<line x1="120" y1="126" x2="980" y2="126" stroke="#e5e7eb" stroke-width="1" />
<text x="110" y="130" font-size="11" text-anchor="end" fill="#4b5563">4.0h</text>
<line x1="120" y1="126" x2="120" y2="362" stroke="#eef2f7" stroke-width="1" />
<text x="120" y="380" font-size="11" text-anchor="middle" fill="#4b5563">5</text>
<line x1="406.7" y1="126" x2="406.7" y2="362" stroke="#eef2f7" stroke-width="1" />
<text x="406.7" y="380" font-size="11" text-anchor="middle" fill="#4b5563">10</text>
<line x1="693.3" y1="126" x2="693.3" y2="362" stroke="#eef2f7" stroke-width="1" />
<text x="693.3" y="380" font-size="11" text-anchor="middle" fill="#4b5563">15</text>
<line x1="980" y1="126" x2="980" y2="362" stroke="#eef2f7" stroke-width="1" />
<text x="980" y="380" font-size="11" text-anchor="middle" fill="#4b5563">20</text>
<polyline fill="none" stroke="#dc2626" stroke-width="3" stroke-linecap="round" stroke-linejoin="round" points="120,351.4 406.7,329.6 693.3,311.3 980,130.1" />
<polyline fill="none" stroke="#2563eb" stroke-width="3" stroke-linecap="round" stroke-linejoin="round" points="120,361.0 406.7,360.2 693.3,359.1 980,358.3" />
<circle cx="120" cy="351.4" r="4" fill="#dc2626" stroke="white" stroke-width="1.5" />
<text x="120" y="339.4" font-size="11" font-weight="600" fill="#b91c1c" text-anchor="middle">0.18h</text>
<circle cx="406.7" cy="329.6" r="4" fill="#dc2626" stroke="white" stroke-width="1.5" />
<text x="406.7" y="317.6" font-size="11" font-weight="600" fill="#b91c1c" text-anchor="middle">0.55h</text>
<circle cx="693.3" cy="311.3" r="4" fill="#dc2626" stroke="white" stroke-width="1.5" />
<text x="693.3" y="299.3" font-size="11" font-weight="600" fill="#b91c1c" text-anchor="middle">0.86h</text>
<circle cx="980" cy="130.1" r="4" fill="#dc2626" stroke="white" stroke-width="1.5" />
<text x="980" y="118.1" font-size="11" font-weight="600" fill="#b91c1c" text-anchor="middle">3.93h</text>
<circle cx="120" cy="361.0" r="4" fill="#2563eb" stroke="white" stroke-width="1.5" />
<text x="148" y="353.0" font-size="11" font-weight="600" fill="#1d4ed8" text-anchor="start">1.0m</text>
<circle cx="406.7" cy="360.2" r="4" fill="#2563eb" stroke="white" stroke-width="1.5" />
<text x="434.7" y="352.2" font-size="11" font-weight="600" fill="#1d4ed8" text-anchor="start">1.8m</text>
<circle cx="693.3" cy="359.1" r="4" fill="#2563eb" stroke="white" stroke-width="1.5" />
<text x="721.3" y="351.1" font-size="11" font-weight="600" fill="#1d4ed8" text-anchor="start">2.9m</text>
<circle cx="980" cy="358.3" r="4" fill="#2563eb" stroke="white" stroke-width="1.5" />
<text x="952" y="350.3" font-size="11" font-weight="600" fill="#1d4ed8" text-anchor="end">3.8m</text>
</svg>
