<svg xmlns="http://www.w3.org/2000/svg" width="1120" height="678" viewBox="0 0 1120 678">
<rect x="0" y="0" width="1120" height="678" rx="18" fill="#ffffff" stroke="#d4d4d8"/>
<text x="34" y="42" font-family="Helvetica, Arial, sans-serif" font-size="26" fill="#0f172a" font-weight="700">Base vs LoRA on Positive Rows</text>
<text x="34" y="68" font-family="Helvetica, Arial, sans-serif" font-size="14" fill="#475569">Blue is the untouched base model; green is the final full-corpus LoRA.</text>
<text x="34" y="115" font-family="Helvetica, Arial, sans-serif" font-size="13" fill="#0f172a" font-weight="700">Held-out Summa citation exact</text>
<rect x="330" y="98" width="560" height="14" rx="3" fill="#f8fafc" stroke="#e2e8f0"/>
<rect x="330" y="98" width="0" height="14" rx="3" fill="#2563eb"/>
<rect x="330" y="120" width="560" height="14" rx="3" fill="#f8fafc" stroke="#e2e8f0"/>
<rect x="330" y="120" width="398" height="14" rx="3" fill="#0f766e"/>
<text x="908" y="110" font-family="Helvetica, Arial, sans-serif" font-size="12" fill="#2563eb">Base 0.0%</text>
<text x="908" y="132" font-family="Helvetica, Arial, sans-serif" font-size="12" fill="#0f766e">LoRA 71.2%</text>
<text x="34" y="165" font-family="Helvetica, Arial, sans-serif" font-size="13" fill="#0f172a" font-weight="700">Aquinas grounding probe score</text>
<rect x="330" y="148" width="560" height="14" rx="3" fill="#f8fafc" stroke="#e2e8f0"/>
<rect x="330" y="148" width="211" height="14" rx="3" fill="#2563eb"/>
<rect x="330" y="170" width="560" height="14" rx="3" fill="#f8fafc" stroke="#e2e8f0"/>
<rect x="330" y="170" width="415" height="14" rx="3" fill="#0f766e"/>
<text x="908" y="160" font-family="Helvetica, Arial, sans-serif" font-size="12" fill="#2563eb">Base 37.7%</text>
<text x="908" y="182" font-family="Helvetica, Arial, sans-serif" font-size="12" fill="#0f766e">LoRA 74.2%</text>
<text x="34" y="215" font-family="Helvetica, Arial, sans-serif" font-size="13" fill="#0f172a" font-weight="700">Aquinas segment-id citation presence</text>
<rect x="330" y="198" width="560" height="14" rx="3" fill="#f8fafc" stroke="#e2e8f0"/>
<rect x="330" y="198" width="0" height="14" rx="3" fill="#2563eb"/>
<rect x="330" y="220" width="560" height="14" rx="3" fill="#f8fafc" stroke="#e2e8f0"/>
<rect x="330" y="220" width="560" height="14" rx="3" fill="#0f766e"/>
<text x="908" y="210" font-family="Helvetica, Arial, sans-serif" font-size="12" fill="#2563eb">Base 0.0%</text>
<text x="908" y="232" font-family="Helvetica, Arial, sans-serif" font-size="12" fill="#0f766e">LoRA 100.0%</text>
<text x="34" y="265" font-family="Helvetica, Arial, sans-serif" font-size="13" fill="#0f172a" font-weight="700">VirtueBench V2 random</text>
<rect x="330" y="248" width="560" height="14" rx="3" fill="#f8fafc" stroke="#e2e8f0"/>
<rect x="330" y="248" width="166" height="14" rx="3" fill="#2563eb"/>
<rect x="330" y="270" width="560" height="14" rx="3" fill="#f8fafc" stroke="#e2e8f0"/>
<rect x="330" y="270" width="324" height="14" rx="3" fill="#0f766e"/>
<text x="908" y="260" font-family="Helvetica, Arial, sans-serif" font-size="12" fill="#2563eb">Base 29.7%</text>
<text x="908" y="282" font-family="Helvetica, Arial, sans-serif" font-size="12" fill="#0f766e">LoRA 58.0%</text>
<text x="34" y="315" font-family="Helvetica, Arial, sans-serif" font-size="13" fill="#0f172a" font-weight="700">VirtueBench V2 paired</text>
<rect x="330" y="298" width="560" height="14" rx="3" fill="#f8fafc" stroke="#e2e8f0"/>
<rect x="330" y="298" width="190" height="14" rx="3" fill="#2563eb"/>
<rect x="330" y="320" width="560" height="14" rx="3" fill="#f8fafc" stroke="#e2e8f0"/>
<rect x="330" y="320" width="277" height="14" rx="3" fill="#0f766e"/>
<text x="908" y="310" font-family="Helvetica, Arial, sans-serif" font-size="12" fill="#2563eb">Base 34.0%</text>
<text x="908" y="332" font-family="Helvetica, Arial, sans-serif" font-size="12" fill="#0f766e">LoRA 49.5%</text>
<text x="34" y="365" font-family="Helvetica, Arial, sans-serif" font-size="13" fill="#0f172a" font-weight="700">MMLU world religions</text>
<rect x="330" y="348" width="560" height="14" rx="3" fill="#f8fafc" stroke="#e2e8f0"/>
<rect x="330" y="348" width="429" height="14" rx="3" fill="#2563eb"/>
<rect x="330" y="370" width="560" height="14" rx="3" fill="#f8fafc" stroke="#e2e8f0"/>
<rect x="330" y="370" width="457" height="14" rx="3" fill="#0f766e"/>
<text x="908" y="360" font-family="Helvetica, Arial, sans-serif" font-size="12" fill="#2563eb">Base 76.7%</text>
<text x="908" y="382" font-family="Helvetica, Arial, sans-serif" font-size="12" fill="#0f766e">LoRA 81.7%</text>
<text x="34" y="415" font-family="Helvetica, Arial, sans-serif" font-size="13" fill="#0f172a" font-weight="700">MMMLU-ZH business ethics</text>
<rect x="330" y="398" width="560" height="14" rx="3" fill="#f8fafc" stroke="#e2e8f0"/>
<rect x="330" y="398" width="326" height="14" rx="3" fill="#2563eb"/>
<rect x="330" y="420" width="560" height="14" rx="3" fill="#f8fafc" stroke="#e2e8f0"/>
<rect x="330" y="420" width="345" height="14" rx="3" fill="#0f766e"/>
<text x="908" y="410" font-family="Helvetica, Arial, sans-serif" font-size="12" fill="#2563eb">Base 58.3%</text>
<text x="908" y="432" font-family="Helvetica, Arial, sans-serif" font-size="12" fill="#0f766e">LoRA 61.7%</text>
<text x="34" y="465" font-family="Helvetica, Arial, sans-serif" font-size="13" fill="#0f172a" font-weight="700">MMMLU-ZH moral scenarios</text>
<rect x="330" y="448" width="560" height="14" rx="3" fill="#f8fafc" stroke="#e2e8f0"/>
<rect x="330" y="448" width="140" height="14" rx="3" fill="#2563eb"/>
<rect x="330" y="470" width="560" height="14" rx="3" fill="#f8fafc" stroke="#e2e8f0"/>
<rect x="330" y="470" width="158" height="14" rx="3" fill="#0f766e"/>
<text x="908" y="460" font-family="Helvetica, Arial, sans-serif" font-size="12" fill="#2563eb">Base 25.0%</text>
<text x="908" y="482" font-family="Helvetica, Arial, sans-serif" font-size="12" fill="#0f766e">LoRA 28.3%</text>
<text x="34" y="515" font-family="Helvetica, Arial, sans-serif" font-size="13" fill="#0f172a" font-weight="700">MMMLU-ZH philosophy</text>
<rect x="330" y="498" width="560" height="14" rx="3" fill="#f8fafc" stroke="#e2e8f0"/>
<rect x="330" y="498" width="298" height="14" rx="3" fill="#2563eb"/>
<rect x="330" y="520" width="560" height="14" rx="3" fill="#f8fafc" stroke="#e2e8f0"/>
<rect x="330" y="520" width="308" height="14" rx="3" fill="#0f766e"/>
<text x="908" y="510" font-family="Helvetica, Arial, sans-serif" font-size="12" fill="#2563eb">Base 53.3%</text>
<text x="908" y="532" font-family="Helvetica, Arial, sans-serif" font-size="12" fill="#0f766e">LoRA 55.0%</text>
<text x="34" y="565" font-family="Helvetica, Arial, sans-serif" font-size="13" fill="#0f172a" font-weight="700">MMLU moral scenarios</text>
<rect x="330" y="548" width="560" height="14" rx="3" fill="#f8fafc" stroke="#e2e8f0"/>
<rect x="330" y="548" width="149" height="14" rx="3" fill="#2563eb"/>
<rect x="330" y="570" width="560" height="14" rx="3" fill="#f8fafc" stroke="#e2e8f0"/>
<rect x="330" y="570" width="158" height="14" rx="3" fill="#0f766e"/>
<text x="908" y="560" font-family="Helvetica, Arial, sans-serif" font-size="12" fill="#2563eb">Base 26.7%</text>
<text x="908" y="582" font-family="Helvetica, Arial, sans-serif" font-size="12" fill="#0f766e">LoRA 28.3%</text>
<rect x="34" y="634" width="12" height="12" rx="2" fill="#2563eb"/>
<text x="54" y="644" font-family="Helvetica, Arial, sans-serif" font-size="12" fill="#475569">Base</text>
<rect x="114" y="634" width="12" height="12" rx="2" fill="#0f766e"/>
<text x="134" y="644" font-family="Helvetica, Arial, sans-serif" font-size="12" fill="#475569">Final full-corpus LoRA</text>
</svg>
