<svg xmlns="http://www.w3.org/2000/svg" width="1120" height="630" viewBox="0 0 1120 630">
<rect x="0" y="0" width="1120" height="630" rx="18" fill="#ffffff" stroke="#d4d4d8"/>
<text x="34" y="42" font-family="Helvetica, Arial, sans-serif" font-size="26" fill="#0f172a" font-weight="700">Positive Benchmark Deltas</text>
<text x="34" y="68" font-family="Helvetica, Arial, sans-serif" font-size="14" fill="#475569">Every row is LoRA minus base; only positive rows are included.</text>
<text x="34" y="110" font-family="Helvetica, Arial, sans-serif" font-size="13" fill="#0f172a" font-weight="700">Held-out Summa citation exact</text>
<text x="34" y="127" font-family="Helvetica, Arial, sans-serif" font-size="11" fill="#64748b">In-domain held-out</text>
<rect x="330" y="94" width="620" height="18" rx="4" fill="#f8fafc" stroke="#e2e8f0"/>
<rect x="330" y="94" width="441" height="18" rx="4" fill="#0f766e"/>
<text x="968" y="109" font-family="Helvetica, Arial, sans-serif" font-size="13" fill="#0f172a">+71.2 pp</text>
<text x="1058" y="109" font-family="Helvetica, Arial, sans-serif" font-size="12" fill="#475569">0.0% -&gt; 71.2%</text>
<text x="34" y="156" font-family="Helvetica, Arial, sans-serif" font-size="13" fill="#0f172a" font-weight="700">Aquinas grounding probe score</text>
<text x="34" y="173" font-family="Helvetica, Arial, sans-serif" font-size="11" fill="#64748b">In-domain grounding</text>
<rect x="330" y="140" width="620" height="18" rx="4" fill="#f8fafc" stroke="#e2e8f0"/>
<rect x="330" y="140" width="226" height="18" rx="4" fill="#0f766e"/>
<text x="968" y="155" font-family="Helvetica, Arial, sans-serif" font-size="13" fill="#0f172a">+36.5 pp</text>
<text x="1058" y="155" font-family="Helvetica, Arial, sans-serif" font-size="12" fill="#475569">37.7% -&gt; 74.2%</text>
<text x="34" y="202" font-family="Helvetica, Arial, sans-serif" font-size="13" fill="#0f172a" font-weight="700">Aquinas segment-id citation presence</text>
<text x="34" y="219" font-family="Helvetica, Arial, sans-serif" font-size="11" fill="#64748b">In-domain grounding</text>
<rect x="330" y="186" width="620" height="18" rx="4" fill="#f8fafc" stroke="#e2e8f0"/>
<rect x="330" y="186" width="620" height="18" rx="4" fill="#0f766e"/>
<text x="968" y="201" font-family="Helvetica, Arial, sans-serif" font-size="13" fill="#0f172a">+100.0 pp</text>
<text x="1058" y="201" font-family="Helvetica, Arial, sans-serif" font-size="12" fill="#475569">0.0% -&gt; 100.0%</text>
<text x="34" y="248" font-family="Helvetica, Arial, sans-serif" font-size="13" fill="#0f172a" font-weight="700">VirtueBench V2 random</text>
<text x="34" y="265" font-family="Helvetica, Arial, sans-serif" font-size="11" fill="#64748b">Virtue diagnostic</text>
<rect x="330" y="232" width="620" height="18" rx="4" fill="#f8fafc" stroke="#e2e8f0"/>
<rect x="330" y="232" width="175" height="18" rx="4" fill="#0f766e"/>
<text x="968" y="247" font-family="Helvetica, Arial, sans-serif" font-size="13" fill="#0f172a">+28.3 pp</text>
<text x="1058" y="247" font-family="Helvetica, Arial, sans-serif" font-size="12" fill="#475569">29.7% -&gt; 58.0%</text>
<text x="34" y="294" font-family="Helvetica, Arial, sans-serif" font-size="13" fill="#0f172a" font-weight="700">VirtueBench V2 paired</text>
<text x="34" y="311" font-family="Helvetica, Arial, sans-serif" font-size="11" fill="#64748b">Virtue diagnostic</text>
<rect x="330" y="278" width="620" height="18" rx="4" fill="#f8fafc" stroke="#e2e8f0"/>
<rect x="330" y="278" width="96" height="18" rx="4" fill="#0f766e"/>
<text x="968" y="293" font-family="Helvetica, Arial, sans-serif" font-size="13" fill="#0f172a">+15.5 pp</text>
<text x="1058" y="293" font-family="Helvetica, Arial, sans-serif" font-size="12" fill="#475569">34.0% -&gt; 49.5%</text>
<text x="34" y="340" font-family="Helvetica, Arial, sans-serif" font-size="13" fill="#0f172a" font-weight="700">MMLU world religions</text>
<text x="34" y="357" font-family="Helvetica, Arial, sans-serif" font-size="11" fill="#64748b">External English transfer</text>
<rect x="330" y="324" width="620" height="18" rx="4" fill="#f8fafc" stroke="#e2e8f0"/>
<rect x="330" y="324" width="30" height="18" rx="4" fill="#0f766e"/>
<text x="968" y="339" font-family="Helvetica, Arial, sans-serif" font-size="13" fill="#0f172a">+5.0 pp</text>
<text x="1058" y="339" font-family="Helvetica, Arial, sans-serif" font-size="12" fill="#475569">76.7% -&gt; 81.7%</text>
<text x="34" y="386" font-family="Helvetica, Arial, sans-serif" font-size="13" fill="#0f172a" font-weight="700">MMMLU-ZH business ethics</text>
<text x="34" y="403" font-family="Helvetica, Arial, sans-serif" font-size="11" fill="#64748b">External Chinese transfer</text>
<rect x="330" y="370" width="620" height="18" rx="4" fill="#f8fafc" stroke="#e2e8f0"/>
<rect x="330" y="370" width="20" height="18" rx="4" fill="#0f766e"/>
<text x="968" y="385" font-family="Helvetica, Arial, sans-serif" font-size="13" fill="#0f172a">+3.3 pp</text>
<text x="1058" y="385" font-family="Helvetica, Arial, sans-serif" font-size="12" fill="#475569">58.3% -&gt; 61.7%</text>
<text x="34" y="432" font-family="Helvetica, Arial, sans-serif" font-size="13" fill="#0f172a" font-weight="700">MMMLU-ZH moral scenarios</text>
<text x="34" y="449" font-family="Helvetica, Arial, sans-serif" font-size="11" fill="#64748b">External Chinese transfer</text>
<rect x="330" y="416" width="620" height="18" rx="4" fill="#f8fafc" stroke="#e2e8f0"/>
<rect x="330" y="416" width="20" height="18" rx="4" fill="#0f766e"/>
<text x="968" y="431" font-family="Helvetica, Arial, sans-serif" font-size="13" fill="#0f172a">+3.3 pp</text>
<text x="1058" y="431" font-family="Helvetica, Arial, sans-serif" font-size="12" fill="#475569">25.0% -&gt; 28.3%</text>
<text x="34" y="478" font-family="Helvetica, Arial, sans-serif" font-size="13" fill="#0f172a" font-weight="700">MMMLU-ZH philosophy</text>
<text x="34" y="495" font-family="Helvetica, Arial, sans-serif" font-size="11" fill="#64748b">External Chinese transfer</text>
<rect x="330" y="462" width="620" height="18" rx="4" fill="#f8fafc" stroke="#e2e8f0"/>
<rect x="330" y="462" width="10" height="18" rx="4" fill="#0f766e"/>
<text x="968" y="477" font-family="Helvetica, Arial, sans-serif" font-size="13" fill="#0f172a">+1.7 pp</text>
<text x="1058" y="477" font-family="Helvetica, Arial, sans-serif" font-size="12" fill="#475569">53.3% -&gt; 55.0%</text>
<text x="34" y="524" font-family="Helvetica, Arial, sans-serif" font-size="13" fill="#0f172a" font-weight="700">MMLU moral scenarios</text>
<text x="34" y="541" font-family="Helvetica, Arial, sans-serif" font-size="11" fill="#64748b">External English transfer</text>
<rect x="330" y="508" width="620" height="18" rx="4" fill="#f8fafc" stroke="#e2e8f0"/>
<rect x="330" y="508" width="10" height="18" rx="4" fill="#0f766e"/>
<text x="968" y="523" font-family="Helvetica, Arial, sans-serif" font-size="13" fill="#0f172a">+1.7 pp</text>
<text x="1058" y="523" font-family="Helvetica, Arial, sans-serif" font-size="12" fill="#475569">26.7% -&gt; 28.3%</text>
</svg>
