<svg xmlns="http://www.w3.org/2000/svg" width="1080" height="744" viewBox="0 0 1080 744" role="img" aria-labelledby="title desc">
<title id="title">Justice-guarded same-budget follow-up comparison</title>
<desc id="desc">Baseline, citation-frontier, and justice-guarded exact citation scores across key held-out Christian virtue slices.</desc>
<rect width="100%" height="100%" fill="#f8fafc"/>
<rect x="24" y="18" width="1032" height="708" rx="18" fill="#ffffff" stroke="#d4d4d8" stroke-width="1.5"/>
<text x="72" y="52" font-size="28" font-family="Georgia, serif" fill="#0f172a">Justice-Guarded Same-Budget Follow-Up</text>
<text x="72" y="76" font-size="13" font-family="Helvetica, Arial, sans-serif" fill="#475569">Qwen/Qwen2.5-1.5B-Instruct local LoRA on Christian virtue supervision. Same 128-example / 20-step budget.</text>
<rect x="790" y="32" width="250" height="74" rx="16" fill="#ecfdf5" stroke="#10b981" stroke-width="1.5"/>
<text x="812" y="56" font-size="11" font-family="Helvetica, Arial, sans-serif" font-weight="700" fill="#047857">Best guarded outcome</text>
<text x="812" y="80" font-size="22" font-family="Helvetica, Arial, sans-serif" font-weight="700" fill="#065f46">39.1%</text>
<text x="882" y="80" font-size="11" font-family="Helvetica, Arial, sans-serif" fill="#334155">overall exact citation with justice/STI recovery</text>
<circle cx="72" cy="108" r="6" fill="#2563eb"/>
<text x="86" y="113" font-size="14" font-family="Helvetica, Arial, sans-serif" fill="#334155">Baseline</text>
<circle cx="252" cy="108" r="6" fill="#d97706"/>
<text x="266" y="113" font-size="14" font-family="Helvetica, Arial, sans-serif" fill="#334155">Citation-frontier</text>
<circle cx="432" cy="108" r="6" fill="#0f766e"/>
<text x="446" y="113" font-size="14" font-family="Helvetica, Arial, sans-serif" fill="#334155">Justice-guarded</text>
<text x="884" y="128" font-size="11" font-family="Helvetica, Arial, sans-serif" font-weight="700" fill="#334155">Series score</text>
<line x1="322.0" y1="136" x2="322.0" y2="708" stroke="#e2e8f0" stroke-width="1"/>
<text x="322.0" y="126" text-anchor="middle" font-size="12" font-family="Helvetica, Arial, sans-serif" fill="#64748b">0%</text>
<line x1="389.5" y1="136" x2="389.5" y2="708" stroke="#e2e8f0" stroke-width="1"/>
<text x="389.5" y="126" text-anchor="middle" font-size="12" font-family="Helvetica, Arial, sans-serif" fill="#64748b">10%</text>
<line x1="457.0" y1="136" x2="457.0" y2="708" stroke="#e2e8f0" stroke-width="1"/>
<text x="457.0" y="126" text-anchor="middle" font-size="12" font-family="Helvetica, Arial, sans-serif" fill="#64748b">20%</text>
<line x1="524.5" y1="136" x2="524.5" y2="708" stroke="#e2e8f0" stroke-width="1"/>
<text x="524.5" y="126" text-anchor="middle" font-size="12" font-family="Helvetica, Arial, sans-serif" fill="#64748b">30%</text>
<line x1="592.0" y1="136" x2="592.0" y2="708" stroke="#e2e8f0" stroke-width="1"/>
<text x="592.0" y="126" text-anchor="middle" font-size="12" font-family="Helvetica, Arial, sans-serif" fill="#64748b">40%</text>
<line x1="659.5" y1="136" x2="659.5" y2="708" stroke="#e2e8f0" stroke-width="1"/>
<text x="659.5" y="126" text-anchor="middle" font-size="12" font-family="Helvetica, Arial, sans-serif" fill="#64748b">50%</text>
<line x1="727.0" y1="136" x2="727.0" y2="708" stroke="#e2e8f0" stroke-width="1"/>
<text x="727.0" y="126" text-anchor="middle" font-size="12" font-family="Helvetica, Arial, sans-serif" fill="#64748b">60%</text>
<line x1="794.5" y1="136" x2="794.5" y2="708" stroke="#e2e8f0" stroke-width="1"/>
<text x="794.5" y="126" text-anchor="middle" font-size="12" font-family="Helvetica, Arial, sans-serif" fill="#64748b">70%</text>
<line x1="862.0" y1="136" x2="862.0" y2="708" stroke="#e2e8f0" stroke-width="1"/>
<text x="862.0" y="126" text-anchor="middle" font-size="12" font-family="Helvetica, Arial, sans-serif" fill="#64748b">80%</text>
<text x="304" y="182" text-anchor="end" font-size="15" font-family="Helvetica, Arial, sans-serif" fill="#0f172a">Overall held-out exact citation</text>
<rect x="322" y="154" width="540" height="12" rx="6" fill="#f8fafc"/>
<rect x="322" y="154" width="246.2" height="12" rx="6" fill="#2563eb"/>
<text x="884" y="164" font-size="12" font-family="Helvetica, Arial, sans-serif" fill="#334155">Baseline 36.5%</text>
<rect x="322" y="172" width="540" height="12" rx="6" fill="#f8fafc"/>
<rect x="322" y="172" width="260.7" height="12" rx="6" fill="#d97706"/>
<text x="884" y="182" font-size="12" font-family="Helvetica, Arial, sans-serif" fill="#334155">Citation-frontier 38.6%</text>
<rect x="322" y="190" width="540" height="12" rx="6" fill="#f8fafc"/>
<rect x="322" y="190" width="263.6" height="12" rx="6" fill="#0f766e"/>
<text x="884" y="200" font-size="12" font-family="Helvetica, Arial, sans-serif" fill="#334155">Justice-guarded 39.1%</text>
<text x="304" y="256" text-anchor="end" font-size="15" font-family="Helvetica, Arial, sans-serif" fill="#0f172a">Justice core</text>
<rect x="322" y="228" width="540" height="12" rx="6" fill="#f8fafc"/>
<rect x="322" y="228" width="337.5" height="12" rx="6" fill="#2563eb"/>
<text x="884" y="238" font-size="12" font-family="Helvetica, Arial, sans-serif" fill="#334155">Baseline 50.0%</text>
<rect x="322" y="246" width="540" height="12" rx="6" fill="#f8fafc"/>
<rect x="322" y="246" width="128.6" height="12" rx="6" fill="#d97706"/>
<text x="884" y="256" font-size="12" font-family="Helvetica, Arial, sans-serif" fill="#334155">Citation-frontier 19.0%</text>
<rect x="322" y="264" width="540" height="12" rx="6" fill="#f8fafc"/>
<rect x="322" y="264" width="289.3" height="12" rx="6" fill="#0f766e"/>
<text x="884" y="274" font-size="12" font-family="Helvetica, Arial, sans-serif" fill="#334155">Justice-guarded 42.9%</text>
<text x="304" y="330" text-anchor="end" font-size="15" font-family="Helvetica, Arial, sans-serif" fill="#0f172a">Strong textual inference</text>
<rect x="322" y="302" width="540" height="12" rx="6" fill="#f8fafc"/>
<rect x="322" y="302" width="327.9" height="12" rx="6" fill="#2563eb"/>
<text x="884" y="312" font-size="12" font-family="Helvetica, Arial, sans-serif" fill="#334155">Baseline 48.6%</text>
<rect x="322" y="320" width="540" height="12" rx="6" fill="#f8fafc"/>
<rect x="322" y="320" width="135.0" height="12" rx="6" fill="#d97706"/>
<text x="884" y="330" font-size="12" font-family="Helvetica, Arial, sans-serif" fill="#334155">Citation-frontier 20.0%</text>
<rect x="322" y="338" width="540" height="12" rx="6" fill="#f8fafc"/>
<rect x="322" y="338" width="289.3" height="12" rx="6" fill="#0f766e"/>
<text x="884" y="348" font-size="12" font-family="Helvetica, Arial, sans-serif" fill="#334155">Justice-guarded 42.9%</text>
<text x="304" y="404" text-anchor="end" font-size="15" font-family="Helvetica, Arial, sans-serif" fill="#0f172a">Passage-grounded doctrinal QA</text>
<rect x="322" y="376" width="540" height="12" rx="6" fill="#f8fafc"/>
<rect x="322" y="376" width="221.6" height="12" rx="6" fill="#2563eb"/>
<text x="884" y="386" font-size="12" font-family="Helvetica, Arial, sans-serif" fill="#334155">Baseline 32.8%</text>
<rect x="322" y="394" width="540" height="12" rx="6" fill="#f8fafc"/>
<rect x="322" y="394" width="251.9" height="12" rx="6" fill="#d97706"/>
<text x="884" y="404" font-size="12" font-family="Helvetica, Arial, sans-serif" fill="#334155">Citation-frontier 37.3%</text>
<rect x="322" y="412" width="540" height="12" rx="6" fill="#f8fafc"/>
<rect x="322" y="412" width="312.3" height="12" rx="6" fill="#0f766e"/>
<text x="884" y="422" font-size="12" font-family="Helvetica, Arial, sans-serif" fill="#334155">Justice-guarded 46.3%</text>
<text x="304" y="478" text-anchor="end" font-size="15" font-family="Helvetica, Arial, sans-serif" fill="#0f172a">Reviewed relation explanation</text>
<rect x="322" y="450" width="540" height="12" rx="6" fill="#f8fafc"/>
<rect x="322" y="450" width="423.1" height="12" rx="6" fill="#2563eb"/>
<text x="884" y="460" font-size="12" font-family="Helvetica, Arial, sans-serif" fill="#334155">Baseline 62.7%</text>
<rect x="322" y="468" width="540" height="12" rx="6" fill="#f8fafc"/>
<rect x="322" y="468" width="413.1" height="12" rx="6" fill="#d97706"/>
<text x="884" y="478" font-size="12" font-family="Helvetica, Arial, sans-serif" fill="#334155">Citation-frontier 61.2%</text>
<rect x="322" y="486" width="540" height="12" rx="6" fill="#f8fafc"/>
<rect x="322" y="486" width="372.8" height="12" rx="6" fill="#0f766e"/>
<text x="884" y="496" font-size="12" font-family="Helvetica, Arial, sans-serif" fill="#334155">Justice-guarded 55.2%</text>
<text x="304" y="552" text-anchor="end" font-size="15" font-family="Helvetica, Arial, sans-serif" fill="#0f172a">Virtue concept explanation</text>
<rect x="322" y="524" width="540" height="12" rx="6" fill="#f8fafc"/>
<rect x="322" y="524" width="443.0" height="12" rx="6" fill="#2563eb"/>
<text x="884" y="534" font-size="12" font-family="Helvetica, Arial, sans-serif" fill="#334155">Baseline 65.6%</text>
<rect x="322" y="542" width="540" height="12" rx="6" fill="#f8fafc"/>
<rect x="322" y="542" width="464.1" height="12" rx="6" fill="#d97706"/>
<text x="884" y="552" font-size="12" font-family="Helvetica, Arial, sans-serif" fill="#334155">Citation-frontier 68.8%</text>
<rect x="322" y="560" width="540" height="12" rx="6" fill="#f8fafc"/>
<rect x="322" y="560" width="485.2" height="12" rx="6" fill="#0f766e"/>
<text x="884" y="570" font-size="12" font-family="Helvetica, Arial, sans-serif" fill="#334155">Justice-guarded 71.9%</text>
<text x="304" y="626" text-anchor="end" font-size="15" font-family="Helvetica, Arial, sans-serif" fill="#0f172a">Citation-grounded moral answer</text>
<rect x="322" y="598" width="540" height="12" rx="6" fill="#f8fafc"/>
<rect x="322" y="598" width="0.0" height="12" rx="6" fill="#2563eb"/>
<text x="884" y="608" font-size="12" font-family="Helvetica, Arial, sans-serif" fill="#334155">Baseline 0.0%</text>
<rect x="322" y="616" width="540" height="12" rx="6" fill="#f8fafc"/>
<rect x="322" y="616" width="20.1" height="12" rx="6" fill="#d97706"/>
<text x="884" y="626" font-size="12" font-family="Helvetica, Arial, sans-serif" fill="#334155">Citation-frontier 3.0%</text>
<rect x="322" y="634" width="540" height="12" rx="6" fill="#f8fafc"/>
<rect x="322" y="634" width="0.0" height="12" rx="6" fill="#0f766e"/>
<text x="884" y="644" font-size="12" font-family="Helvetica, Arial, sans-serif" fill="#334155">Justice-guarded 0.0%</text>
<text x="592.0" y="728" font-size="12" font-family="Helvetica, Arial, sans-serif" text-anchor="middle" fill="#475569">Held-out exact citation match</text>
</svg>
