<svg xmlns="http://www.w3.org/2000/svg" width="1040" height="718" viewBox="0 0 1040 718" role="img" aria-labelledby="title desc">
<title id="title">Justice-guarded same-budget follow-up comparison</title>
<desc id="desc">Baseline, citation-frontier, and justice-guarded exact citation scores across key held-out Christian virtue slices.</desc>
<rect width="100%" height="100%" fill="#ffffff"/>
<text x="56" y="52" font-size="28" font-family="Georgia, serif" fill="#0f172a">Justice-Guarded Same-Budget Follow-Up</text>
<text x="56" y="84" font-size="16" font-family="Helvetica, Arial, sans-serif" fill="#475569">Qwen/Qwen2.5-1.5B-Instruct local LoRA on Christian virtue supervision. Same 128-example / 20-step budget.</text>
<circle cx="56" cy="108" r="6" fill="#2563eb"/>
<text x="70" y="113" font-size="14" font-family="Helvetica, Arial, sans-serif" fill="#334155">Baseline</text>
<circle cx="236" cy="108" r="6" fill="#d97706"/>
<text x="250" y="113" font-size="14" font-family="Helvetica, Arial, sans-serif" fill="#334155">Citation-frontier</text>
<circle cx="416" cy="108" r="6" fill="#0f766e"/>
<text x="430" y="113" font-size="14" font-family="Helvetica, Arial, sans-serif" fill="#334155">Justice-guarded</text>
<line x1="290.0" y1="122" x2="290.0" y2="682" stroke="#e2e8f0" stroke-width="1"/>
<text x="290.0" y="112" text-anchor="middle" font-size="12" font-family="Helvetica, Arial, sans-serif" fill="#64748b">0%</text>
<line x1="381.8" y1="122" x2="381.8" y2="682" stroke="#e2e8f0" stroke-width="1"/>
<text x="381.8" y="112" text-anchor="middle" font-size="12" font-family="Helvetica, Arial, sans-serif" fill="#64748b">10%</text>
<line x1="473.7" y1="122" x2="473.7" y2="682" stroke="#e2e8f0" stroke-width="1"/>
<text x="473.7" y="112" text-anchor="middle" font-size="12" font-family="Helvetica, Arial, sans-serif" fill="#64748b">20%</text>
<line x1="565.5" y1="122" x2="565.5" y2="682" stroke="#e2e8f0" stroke-width="1"/>
<text x="565.5" y="112" text-anchor="middle" font-size="12" font-family="Helvetica, Arial, sans-serif" fill="#64748b">30%</text>
<line x1="657.3" y1="122" x2="657.3" y2="682" stroke="#e2e8f0" stroke-width="1"/>
<text x="657.3" y="112" text-anchor="middle" font-size="12" font-family="Helvetica, Arial, sans-serif" fill="#64748b">40%</text>
<line x1="749.1" y1="122" x2="749.1" y2="682" stroke="#e2e8f0" stroke-width="1"/>
<text x="749.1" y="112" text-anchor="middle" font-size="12" font-family="Helvetica, Arial, sans-serif" fill="#64748b">50%</text>
<line x1="841.0" y1="122" x2="841.0" y2="682" stroke="#e2e8f0" stroke-width="1"/>
<text x="841.0" y="112" text-anchor="middle" font-size="12" font-family="Helvetica, Arial, sans-serif" fill="#64748b">60%</text>
<line x1="932.8" y1="122" x2="932.8" y2="682" stroke="#e2e8f0" stroke-width="1"/>
<text x="932.8" y="112" text-anchor="middle" font-size="12" font-family="Helvetica, Arial, sans-serif" fill="#64748b">70%</text>
<line x1="1024.6" y1="122" x2="1024.6" y2="682" stroke="#e2e8f0" stroke-width="1"/>
<text x="1024.6" y="112" text-anchor="middle" font-size="12" font-family="Helvetica, Arial, sans-serif" fill="#64748b">80%</text>
<text x="272" y="168" text-anchor="end" font-size="15" font-family="Helvetica, Arial, sans-serif" fill="#0f172a">Overall held-out exact citation</text>
<rect x="290" y="140" width="660" height="12" rx="6" fill="#f8fafc"/>
<rect x="290" y="140" width="335.0" height="12" rx="6" fill="#2563eb"/>
<text x="633.0" y="150" font-size="12" font-family="Helvetica, Arial, sans-serif" fill="#334155">Baseline 36.5%</text>
<rect x="290" y="158" width="660" height="12" rx="6" fill="#f8fafc"/>
<rect x="290" y="158" width="354.7" height="12" rx="6" fill="#d97706"/>
<text x="652.7" y="168" font-size="12" font-family="Helvetica, Arial, sans-serif" fill="#334155">Citation-frontier 38.6%</text>
<rect x="290" y="176" width="660" height="12" rx="6" fill="#f8fafc"/>
<rect x="290" y="176" width="358.6" height="12" rx="6" fill="#0f766e"/>
<text x="656.6" y="186" font-size="12" font-family="Helvetica, Arial, sans-serif" fill="#334155">Justice-guarded 39.1%</text>
<text x="272" y="242" text-anchor="end" font-size="15" font-family="Helvetica, Arial, sans-serif" fill="#0f172a">Justice core</text>
<rect x="290" y="214" width="660" height="12" rx="6" fill="#f8fafc"/>
<rect x="290" y="214" width="459.1" height="12" rx="6" fill="#2563eb"/>
<text x="757.1" y="224" font-size="12" font-family="Helvetica, Arial, sans-serif" fill="#334155">Baseline 50.0%</text>
<rect x="290" y="232" width="660" height="12" rx="6" fill="#f8fafc"/>
<rect x="290" y="232" width="174.9" height="12" rx="6" fill="#d97706"/>
<text x="472.9" y="242" font-size="12" font-family="Helvetica, Arial, sans-serif" fill="#334155">Citation-frontier 19.0%</text>
<rect x="290" y="250" width="660" height="12" rx="6" fill="#f8fafc"/>
<rect x="290" y="250" width="393.5" height="12" rx="6" fill="#0f766e"/>
<text x="691.5" y="260" font-size="12" font-family="Helvetica, Arial, sans-serif" fill="#334155">Justice-guarded 42.9%</text>
<text x="272" y="316" text-anchor="end" font-size="15" font-family="Helvetica, Arial, sans-serif" fill="#0f172a">Strong textual inference</text>
<rect x="290" y="288" width="660" height="12" rx="6" fill="#f8fafc"/>
<rect x="290" y="288" width="446.0" height="12" rx="6" fill="#2563eb"/>
<text x="744.0" y="298" font-size="12" font-family="Helvetica, Arial, sans-serif" fill="#334155">Baseline 48.6%</text>
<rect x="290" y="306" width="660" height="12" rx="6" fill="#f8fafc"/>
<rect x="290" y="306" width="183.7" height="12" rx="6" fill="#d97706"/>
<text x="481.7" y="316" font-size="12" font-family="Helvetica, Arial, sans-serif" fill="#334155">Citation-frontier 20.0%</text>
<rect x="290" y="324" width="660" height="12" rx="6" fill="#f8fafc"/>
<rect x="290" y="324" width="393.5" height="12" rx="6" fill="#0f766e"/>
<text x="691.5" y="334" font-size="12" font-family="Helvetica, Arial, sans-serif" fill="#334155">Justice-guarded 42.9%</text>
<text x="272" y="390" text-anchor="end" font-size="15" font-family="Helvetica, Arial, sans-serif" fill="#0f172a">Passage-grounded doctrinal QA</text>
<rect x="290" y="362" width="660" height="12" rx="6" fill="#f8fafc"/>
<rect x="290" y="362" width="301.5" height="12" rx="6" fill="#2563eb"/>
<text x="599.5" y="372" font-size="12" font-family="Helvetica, Arial, sans-serif" fill="#334155">Baseline 32.8%</text>
<rect x="290" y="380" width="660" height="12" rx="6" fill="#f8fafc"/>
<rect x="290" y="380" width="342.6" height="12" rx="6" fill="#d97706"/>
<text x="640.6" y="390" font-size="12" font-family="Helvetica, Arial, sans-serif" fill="#334155">Citation-frontier 37.3%</text>
<rect x="290" y="398" width="660" height="12" rx="6" fill="#f8fafc"/>
<rect x="290" y="398" width="424.9" height="12" rx="6" fill="#0f766e"/>
<text x="722.9" y="408" font-size="12" font-family="Helvetica, Arial, sans-serif" fill="#334155">Justice-guarded 46.3%</text>
<text x="272" y="464" text-anchor="end" font-size="15" font-family="Helvetica, Arial, sans-serif" fill="#0f172a">Reviewed relation explanation</text>
<rect x="290" y="436" width="660" height="12" rx="6" fill="#f8fafc"/>
<rect x="290" y="436" width="575.6" height="12" rx="6" fill="#2563eb"/>
<text x="873.6" y="446" font-size="12" font-family="Helvetica, Arial, sans-serif" fill="#334155">Baseline 62.7%</text>
<rect x="290" y="454" width="660" height="12" rx="6" fill="#f8fafc"/>
<rect x="290" y="454" width="561.9" height="12" rx="6" fill="#d97706"/>
<text x="859.9" y="464" font-size="12" font-family="Helvetica, Arial, sans-serif" fill="#334155">Citation-frontier 61.2%</text>
<rect x="290" y="472" width="660" height="12" rx="6" fill="#f8fafc"/>
<rect x="290" y="472" width="507.1" height="12" rx="6" fill="#0f766e"/>
<text x="805.1" y="482" font-size="12" font-family="Helvetica, Arial, sans-serif" fill="#334155">Justice-guarded 55.2%</text>
<text x="272" y="538" text-anchor="end" font-size="15" font-family="Helvetica, Arial, sans-serif" fill="#0f172a">Virtue concept explanation</text>
<rect x="290" y="510" width="660" height="12" rx="6" fill="#f8fafc"/>
<rect x="290" y="510" width="602.6" height="12" rx="6" fill="#2563eb"/>
<text x="900.6" y="520" font-size="12" font-family="Helvetica, Arial, sans-serif" fill="#334155">Baseline 65.6%</text>
<rect x="290" y="528" width="660" height="12" rx="6" fill="#f8fafc"/>
<rect x="290" y="528" width="631.3" height="12" rx="6" fill="#d97706"/>
<text x="929.3" y="538" font-size="12" font-family="Helvetica, Arial, sans-serif" fill="#334155">Citation-frontier 68.8%</text>
<rect x="290" y="546" width="660" height="12" rx="6" fill="#f8fafc"/>
<rect x="290" y="546" width="660.0" height="12" rx="6" fill="#0f766e"/>
<text x="958.0" y="556" font-size="12" font-family="Helvetica, Arial, sans-serif" fill="#334155">Justice-guarded 71.9%</text>
<text x="272" y="612" text-anchor="end" font-size="15" font-family="Helvetica, Arial, sans-serif" fill="#0f172a">Citation-grounded moral answer</text>
<rect x="290" y="584" width="660" height="12" rx="6" fill="#f8fafc"/>
<rect x="290" y="584" width="0.0" height="12" rx="6" fill="#2563eb"/>
<text x="298.0" y="594" font-size="12" font-family="Helvetica, Arial, sans-serif" fill="#334155">Baseline 0.0%</text>
<rect x="290" y="602" width="660" height="12" rx="6" fill="#f8fafc"/>
<rect x="290" y="602" width="27.4" height="12" rx="6" fill="#d97706"/>
<text x="325.4" y="612" font-size="12" font-family="Helvetica, Arial, sans-serif" fill="#334155">Citation-frontier 3.0%</text>
<rect x="290" y="620" width="660" height="12" rx="6" fill="#f8fafc"/>
<rect x="290" y="620" width="0.0" height="12" rx="6" fill="#0f766e"/>
<text x="298.0" y="630" font-size="12" font-family="Helvetica, Arial, sans-serif" fill="#334155">Justice-guarded 0.0%</text>
</svg>
